# xmcd
#
# Track frame offsets: 
#        150
#        15436
#        35667
#        52552
#        66320
#        81420
#        95633
#        110851
#        125161
#        142069
#        155257
#        172299
#        189507
#        204723
#
# Disc length: 2931 seconds
#
# Revision: 1
# Processed by: cddbd v1.5.2PL0 Copyright (c) Steve Scherf et al.
# Submitted via: ExactAudioCopy v0.99pb5
#
DISCID=d00b710e
DTITLE=Gunter Gabriel - Strassenhund
DYEAR=1900
DGENRE=Country
TTITLE0=Truck Stop, Tom Astor und ich
TTITLE1=Ich bin ein Strassenhund
TTITLE2=Liebst Du 'nen arbeitslosen Star?
TTITLE3=Der letzte Wagen ist immer ein Kombi
TTITLE4=Laﬂ mich Dein Freund sein heut nacht
TTITLE5=Flensburg (Gib mir meine Pappe wieder)
TTITLE6=Harry und Oskar (Zwei Kerle wie'n Brautpaar)
TTITLE7=Den Rocker kriegst Du nicht mehr aus mir raus
TTITLE8=Wir sind die an denen alles h‰ngen bleibt
TTITLE9=Einfache Fakten
TTITLE10=Sechs Tage auf'm Bock (Six Days On The Road)
TTITLE11=Du bist das Gold in meinem Leben
TTITLE12=Ich werd' gesucht in Bremerhaven
TTITLE13=Willkommen im deutschen Wunderland (Welcome To The USA Today)
EXTD=
EXTT0=
EXTT1=
EXTT2=
EXTT3=
EXTT4=
EXTT5=
EXTT6=
EXTT7=
EXTT8=
EXTT9=
EXTT10=
EXTT11=
EXTT12=
EXTT13=
PLAYORDER=
